<svg xmlns="http://www.w3.org/2000/svg" viewBox="0 0 512 512" fill="#bbdefb"><path d="M256 0a32 32 0 0 0-32 32v64a32 32 0 0 0 64 0V32a32 32 0 0 0-32-32zm0 384a32 32 0 0 0-32 32v64a32 32 0 0 0 64 0v-64a32 32 0 0 0-32-32zm135.74-218.5L437 120.22A32 32 0 0 0 391.74 75l-45.24 45.22a32 32 0 0 0 45.25 45.28zm-271.52 181L75 391.74A32 32 0 0 0 120.22 437l45.25-45.25a32 32 0 0 0-45.25-45.25zm0-271.52A32 32 0 1 0 75 120.22l45.25 45.28a32 32 0 1 0 45.25-45.28zM391.74 346.5a32 32 0 0 0-45.25 45.25L391.74 437A32 32 0 0 0 437 391.74zM480 224h-64a32 32 0 0 0 0 64h64a32 32 0 0 0 0-64zm-352 32a32 32 0 0 0-32-32H32a32 32 0 0 0 0 64h64a32 32 0 0 0 32-32z"/></svg>