<svg xmlns="http://www.w3.org/2000/svg" width="150" height="150"><path fill="#989898" fill-opacity=".4" d="M0 0h150v150H0z"/><path d="M94.443 91.242a30.163 30.163 0 0 0 10.149-22.527c-.001-16.658-13.505-30.162-30.162-30.162-16.659 0-30.164 13.503-30.164 30.162A30.164 30.164 0 0 0 54.34 91.166M128.098 150c.289-2.326.455-4.693.455-7.1-.011-22.749-13.517-43.202-34.11-51.658A30.163 30.163 0 0 1 74.43 98.88a30.163 30.163 0 0 1-20.09-7.713C33.623 99.55 20 120.06 19.979 142.9c0 2.407.164 4.774.453 7.1" fill="none" stroke="#000" stroke-width="7" stroke-opacity=".4"/></svg>