<svg xmlns="http://www.w3.org/2000/svg" viewBox="0 0 512 512" fill="#ffcdd2"><path d="M437 75A256 256 0 1 0 75 437 256 256 0 1 0 437 75zm-20.57 341.43a226.82 226.82 0 0 1-320.86 0C7.11 328 7.11 184 95.57 95.57a226.82 226.82 0 0 1 320.86 0c88.46 88.43 88.46 232.43 0 320.86z"/><path d="M368.81 143.19a14.5 14.5 0 0 0-20.58 0L256 235.42l-92.23-92.23a14.55 14.55 0 0 0-20.58 20.58L235.42 256l-92.23 92.23a14.6 14.6 0 0 0 10.24 24.89 14.19 14.19 0 0 0 10.24-4.31l92.23-92.23 92.23 92.23a14.64 14.64 0 0 0 10.24 4.31 14 14 0 0 0 10.24-4.31 14.5 14.5 0 0 0 0-20.58l-92-92.23 92.23-92.23a14.5 14.5 0 0 0-.03-20.58z"/></svg>