<svg xmlns="http://www.w3.org/2000/svg" version="1.1" x="0px" y="0px" viewBox="0 0 512 512" fill="#bbdefb"><g><path d="M256,0a32,32,0,0,0-32,32V96a32,32,0,0,0,64,0V32A32,32,0,0,0,256,0Zm0,384a32,32,0,0,0-32,32v64a32,32,0,0,0,64,0V416A32,32,0,0,0,256,384ZM391.74,165.5,437,120.22A32,32,0,0,0,391.74,75L346.5,120.22a32,32,0,0,0,45.25,45.28Zm-271.52,181L75,391.74A32,32,0,0,0,120.22,437l45.25-45.25a32,32,0,0,0-45.25-45.25Zm0-271.52A32,32,0,1,0,75,120.22l45.25,45.28a32,32,0,1,0,45.25-45.28ZM391.74,346.5a32,32,0,0,0-45.25,45.25L391.74,437A32,32,0,0,0,437,391.74ZM480,224H416a32,32,0,0,0,0,64h64a32,32,0,0,0,0-64ZM128,256a32,32,0,0,0-32-32H32a32,32,0,0,0,0,64H96A32,32,0,0,0,128,256Z"/></g></svg>