<svg xmlns="http://www.w3.org/2000/svg" version="1.1" x="0px" y="0px" viewBox="0 0 512 512" fill="#c8e6c9"><g><path d="M256,0C114.85,0,0,114.84,0,256S114.85,512,256,512,512,397.16,512,256,397.15,0,256,0Zm0,492.31c-130.29,0-236.31-106-236.31-236.31S125.71,19.69,256,19.69,492.31,125.71,492.31,256,386.29,492.31,256,492.31Z"/><path class="cls-1" d="M376.64,151,225.31,321.24l-91.17-72.93a9.85,9.85,0,0,0-12.3,15.38l98.46,78.77a9.86,9.86,0,0,0,13.52-1.15L391.36,164.08A9.85,9.85,0,0,0,376.64,151Z"/></g></svg>